<?xml version="1.0" encoding="utf-8"?>
<!-- Generator: Adobe Illustrator 22.1.0, SVG Export Plug-In . SVG Version: 6.00 Build 0)  -->
<svg version="1.1" id="katman_1" xmlns="http://www.w3.org/2000/svg" xmlns:xlink="http://www.w3.org/1999/xlink" x="0px" y="0px"
	 viewBox="0 0 621.6 114.1" style="enable-background:new 0 0 621.6 114.1;" xml:space="preserve">
<style type="text/css">
	.st0{fill:#FFFFFF;}
</style>
<g>
	<g>
		<g>
			<path class="st0" d="M-125.5-24.9l-9.3-14.7c-7.7,1.5-15.1,4-22,7.2l1.3,17.4c-3,1.7-5.9,3.6-8.6,5.6l-15.4-8.1
				c-5.8,5.1-11,10.9-15.4,17.2l9.8,14.4c-1.7,3-3.3,6-4.7,9.2l-17.4,0.7c-2.5,7.2-4,14.8-4.7,22.7l15.6,7.6c0,2.5,0.1,5.1,0.3,7.6
				c0.1,0.9,0.2,1.8,0.3,2.6l-14.7,9.3c1.5,7.7,4,15.1,7.2,22l17.3-1.3c1.7,3,3.6,5.9,5.6,8.6l-8.1,15.4c5.1,5.8,10.9,11,17.2,15.4
				l14.4-9.8c3,1.8,6,3.3,9.2,4.7l0.7,17.3c2.6,0.9,5.3,1.7,8.1,2.3c1-2.8,2-5.8,3.1-8.8l22.8-75.3l-40,1.9"/>
			<path class="st0" d="M-24.6,85.7c2.5-7.2,4.1-14.8,4.7-22.7l-15.6-7.6c0-2.5-0.1-5.1-0.3-7.6c-0.1-0.9-0.2-1.8-0.3-2.6l14.7-9.3
				c-1.5-7.7-4-15.1-7.2-22l-17.4,1.3c-1.7-3-3.6-5.9-5.6-8.6l8.1-15.4c-5.1-5.8-14.7-12.9-21.1-17.4l-5.2,8.1l-27.1,49.1l33.3,1.8
				c0,0-47.4,73-72.6,116.1c0.1,0,0.2,0,0.3,0.1c3.8,0.8,7.8,1.4,11.8,1.7l7.6-15.6c2.5,0,5.1-0.1,7.6-0.3c0.9-0.1,1.8-0.2,2.6-0.3
				l9.3,14.7c7.7-1.5,15.1-4,22-7.2l-1.3-17.4c3-1.7,5.9-3.6,8.6-5.6l15.4,8.1c5.8-5.1,11-10.9,15.4-17.2l-9.7-14.4
				c1.7-3,3.3-6,4.7-9.2L-24.6,85.7z"/>
		</g>
	</g>
	<g>
		<g>
			<path class="st0" d="M61.9,83.5V39.7L46,71.6h-9.1L21,39.7v43.9H4V10.2h18.4l19,38.3l19.1-38.3h18.3v73.3H61.9z"/>
			<path class="st0" d="M106.3,84.6c-2.7,0-5.2-0.4-7.5-1.3c-2.3-0.9-4.3-2.1-5.9-3.6c-1.7-1.5-3-3.4-3.9-5.5
				c-1-2.1-1.4-4.4-1.4-6.9c0-2.7,0.6-5.1,1.7-7.3c1.1-2.2,2.7-4.1,4.8-5.7c2.1-1.6,4.5-2.8,7.3-3.7c2.8-0.9,6-1.3,9.4-1.3
				c2.3,0,4.5,0.2,6.6,0.6c2.1,0.4,4,0.9,5.6,1.7V49c0-6.3-3.6-9.4-10.8-9.4c-3,0-5.8,0.5-8.5,1.5c-2.7,1-5.5,2.5-8.5,4.5l-4.9-10.3
				c3.6-2.3,7.3-4.1,11.2-5.3c3.9-1.2,7.9-1.8,12.3-1.8c8.2,0,14.5,1.9,19,5.8c4.5,3.9,6.7,9.5,6.7,16.9v13.9c0,1.7,0.3,2.8,0.8,3.5
				c0.5,0.7,1.4,1.1,2.7,1.2v13.9c-1.4,0.3-2.8,0.6-3.9,0.7c-1.2,0.1-2.2,0.2-3.2,0.2c-3.1,0-5.4-0.6-7-1.8c-1.6-1.2-2.6-2.9-3-5.1
				l-0.3-2.5c-2.4,3.1-5.3,5.5-8.6,7.1C113.6,83.7,110.1,84.6,106.3,84.6z M111.2,72.7c1.8,0,3.5-0.3,5.2-0.9
				c1.7-0.6,3.1-1.4,4.2-2.5c1.6-1.2,2.4-2.5,2.4-3.9v-5.2c-1.4-0.6-3-1-4.7-1.3c-1.7-0.3-3.3-0.5-4.7-0.5c-3,0-5.5,0.7-7.5,2.1
				c-2,1.4-2.9,3.2-2.9,5.4c0,2,0.8,3.6,2.3,4.9C106.9,72.1,108.9,72.7,111.2,72.7z"/>
			<path class="st0" d="M187.9,83.5l-14.1-21.8l-5.8,6v15.8h-16.5V8.2H168v43.7l18.3-22.5h17.6l-19.5,23.3l21.2,30.9H187.9z"/>
			<path class="st0" d="M233.3,84.6c-4.5,0-8.6-0.7-12.2-2.2c-3.6-1.5-6.7-3.5-9.2-6c-2.5-2.5-4.4-5.5-5.7-8.8
				c-1.3-3.3-2-6.8-2-10.5c0-3.9,0.7-7.6,2-11.1c1.3-3.5,3.2-6.5,5.7-9.1c2.5-2.6,5.5-4.7,9.1-6.2c3.6-1.5,7.7-2.3,12.3-2.3
				c4.6,0,8.7,0.8,12.3,2.3c3.6,1.5,6.6,3.6,9.1,6.1c2.5,2.6,4.4,5.6,5.6,8.9c1.3,3.4,1.9,6.9,1.9,10.6c0,1,0,1.9-0.1,2.8
				c-0.1,0.9-0.2,1.7-0.3,2.4h-40.1c0.3,3.6,1.6,6.4,4,8.3c2.4,1.9,5.1,2.8,8.1,2.8c2.4,0,4.7-0.6,7-1.8c2.2-1.2,3.7-2.8,4.5-4.7
				l14,3.9c-2.1,4.3-5.4,7.7-9.9,10.4C245,83.2,239.6,84.6,233.3,84.6z M244.8,51.3c-0.3-3.4-1.6-6.2-3.7-8.2c-2.1-2-4.8-3-7.9-3
				c-3.2,0-5.9,1-8,3c-2.1,2-3.3,4.7-3.7,8.1H244.8z"/>
			<path class="st0" d="M304.2,43.5c-4,0.1-7.6,0.7-10.8,2c-3.2,1.2-5.6,3.1-7,5.6v32.5h-16.5V29.3H285v10.9
				c1.9-3.6,4.2-6.5,7.2-8.6c2.9-2.1,6-3.1,9.3-3.2c0.8,0,1.3,0,1.7,0c0.3,0,0.7,0,1,0.1V43.5z"/>
			<path class="st0" d="M394.6,64.7c0,3.2-0.7,5.9-2,8.3c-1.3,2.3-3.1,4.3-5.4,5.8c-2.3,1.5-4.9,2.7-7.9,3.5c-3,0.8-6.2,1.2-9.6,1.2
				H334V10.2h40.8c2.5,0,4.9,0.6,6.9,1.7c2.1,1.1,3.8,2.5,5.3,4.3c1.4,1.8,2.6,3.8,3.4,6c0.8,2.2,1.2,4.5,1.2,6.9
				c0,3.5-0.9,6.8-2.6,9.9c-1.8,3.1-4.4,5.4-7.9,7c4.2,1.2,7.5,3.4,10,6.6C393.4,55.7,394.6,59.8,394.6,64.7z M350.9,24.7v15.2h16.6
				c1.9,0,3.5-0.6,5-1.9c1.4-1.2,2.2-3.2,2.2-5.8c0-2.4-0.6-4.3-1.9-5.6c-1.3-1.3-2.8-2-4.6-2H350.9z M377.4,61.3
				c0-2.3-0.7-4.2-2-5.8c-1.3-1.6-3-2.4-5-2.4h-19.5v16h18.8c2.2,0,4-0.7,5.5-2.2C376.6,65.6,377.4,63.7,377.4,61.3z"/>
			<path class="st0" d="M403.3,23.1v-15h16.5v15H403.3z M403.3,83.5V29.3h16.5v54.2H403.3z"/>
			<path class="st0" d="M465.5,43.5c-4,0.1-7.6,0.7-10.8,2c-3.2,1.2-5.6,3.1-7,5.6v32.5h-16.5V29.3h15.2v10.9
				c1.9-3.6,4.2-6.5,7.2-8.6c2.9-2.1,6-3.1,9.3-3.2c0.8,0,1.3,0,1.7,0c0.3,0,0.7,0,1,0.1V43.5z"/>
			<path class="st0" d="M472.2,8.2h16.5v56.1c0,4.1,1.8,6.2,5.3,6.2c0.8,0,1.7-0.1,2.7-0.4c1-0.2,1.9-0.6,2.7-1.1l2.2,12.4
				c-2.1,1-4.4,1.7-7.1,2.3c-2.7,0.5-5.2,0.8-7.5,0.8c-4.7,0-8.4-1.2-10.9-3.7c-2.5-2.5-3.8-6.1-3.8-10.7V8.2z"/>
			<path class="st0" d="M507,23.1v-15h16.5v15H507z M507,83.5V29.3h16.5v54.2H507z"/>
			<path class="st0" d="M556,83.7c-3.6,0-6.8-0.7-9.8-2.2c-3-1.4-5.5-3.4-7.6-5.9c-2.1-2.5-3.7-5.4-4.9-8.7
				c-1.2-3.3-1.8-6.8-1.8-10.6c0-4,0.6-7.7,1.9-11.1c1.2-3.4,3-6.4,5.2-8.9c2.2-2.5,4.9-4.5,7.9-5.9c3.1-1.4,6.5-2.2,10.2-2.2
				c4.1,0,7.7,0.9,10.8,2.6c3.1,1.8,5.5,4.2,7.4,7.3v-8.9h14.4v50.5c0,4.1-0.8,7.8-2.3,11.1c-1.5,3.3-3.7,6.1-6.5,8.4
				c-2.8,2.3-6.1,4.1-9.9,5.3c-3.9,1.2-8.1,1.9-12.7,1.9c-5.9,0-10.8-0.9-15-2.8c-4.1-1.9-7.7-4.5-10.8-8.1l8.9-9
				c2,2.3,4.5,4.1,7.4,5.4c3,1.3,6.1,2,9.5,2c2,0,3.9-0.3,5.7-0.8c1.8-0.6,3.4-1.4,4.7-2.5c1.4-1.1,2.5-2.6,3.3-4.4
				c0.8-1.8,1.2-4,1.2-6.6v-5.3c-1.7,3-4,5.3-7.1,6.9C562.9,83,559.5,83.7,556,83.7z M561.6,70.6c2.5,0,4.8-0.7,6.8-2.1
				c2-1.4,3.5-3.2,4.6-5.4V51.7c-1.1-2.9-2.8-5.2-5.1-6.9c-2.3-1.7-4.7-2.5-7.2-2.5c-1.8,0-3.4,0.4-4.9,1.2
				c-1.5,0.8-2.8,1.9-3.8,3.2c-1.1,1.3-1.9,2.9-2.5,4.6c-0.6,1.8-0.9,3.6-0.9,5.4c0,2,0.3,3.8,1,5.5c0.7,1.7,1.6,3.1,2.7,4.4
				c1.2,1.2,2.5,2.2,4.1,2.9C558.1,70.3,559.8,70.6,561.6,70.6z"/>
			<path class="st0" d="M601,23.1v-15h16.5v15H601z M601,83.5V29.3h16.5v54.2H601z"/>
		</g>
		<rect x="550.1" y="8.2" class="st0" width="29.7" height="15.2"/>
	</g>
</g>
</svg>
