<svg xmlns="http://www.w3.org/2000/svg" viewBox="0 0 572.77 127.7"><defs><style>.cls-1{fill:#fff;}</style></defs><title>Varlık 4</title><g id="katman_2" data-name="katman 2"><g id="katman_3" data-name="katman 3"><path class="cls-1" d="M99.92,126V44.87l-31.58,60.4H55.4L23.82,44.87V126H0V3.45H25.54L61.78,73.17,98.37,3.45h25.37V126Z"/><path class="cls-1" d="M187.76,127.7A50,50,0,0,1,168.09,124,44.28,44.28,0,0,1,143.5,99.06a47.51,47.51,0,0,1-3.37-17.78,50.24,50.24,0,0,1,3.28-18.2,44.4,44.4,0,0,1,9.49-15A45.55,45.55,0,0,1,168,37.79,50.3,50.3,0,0,1,187.93,34a49,49,0,0,1,19.76,3.79A45.5,45.5,0,0,1,222.53,48a43.12,43.12,0,0,1,9.32,14.84,49.38,49.38,0,0,1,3.2,17.6c0,1.5,0,2.93-.09,4.31a17.86,17.86,0,0,1-.43,3.46H164.64a26.55,26.55,0,0,0,2.59,9.49A23.2,23.2,0,0,0,180,109.24a24.22,24.22,0,0,0,8.62,1.55,26.69,26.69,0,0,0,13-3.36A17.8,17.8,0,0,0,210,98.54l19.85,5.52a40.42,40.42,0,0,1-16,17Q202.95,127.7,187.76,127.7Zm23.47-54.53q-.87-10.19-7.51-16.31a24.21,24.21,0,0,0-24.85-4.48A22.63,22.63,0,0,0,171.71,57,23.62,23.62,0,0,0,166.62,64a25,25,0,0,0-2.33,9.14Z"/><path class="cls-1" d="M303,55.57a45.81,45.81,0,0,0-18.81,4,23.81,23.81,0,0,0-11.91,11.65V126H249.2V35.55h21.22V54.88a40.86,40.86,0,0,1,5.7-8.37A43.79,43.79,0,0,1,283.19,40a33.07,33.07,0,0,1,7.68-4.23,21.16,21.16,0,0,1,7.51-1.47h2.85a9.67,9.67,0,0,1,1.81.17Z"/><path class="cls-1" d="M377.76,126,351.53,86.8,339.11,99.06V126H316V0h23.13V76.45l36.24-40.73H400L366.37,74l36.07,52Z"/><path class="cls-1" d="M439.89,127.7q-14,0-21.23-9t-7.24-26.58V35.55h23.12v51.6q0,20.88,15,20.88a23.77,23.77,0,0,0,13-4q6.3-4.07,10.27-12.34V35.55H496V99.4c0,2.42.43,4.14,1.29,5.18a5.67,5.67,0,0,0,4.23,1.73V126a47.81,47.81,0,0,1-5.78.86c-1.55.12-3,.17-4.23.17q-6.21,0-10.1-2.84a11.26,11.26,0,0,1-4.57-7.86l-.52-7.24a38.59,38.59,0,0,1-15.53,14A46.83,46.83,0,0,1,439.89,127.7Zm-12.43-106V1.21h19.16V21.74Zm33.14,0V1.21h19.16V21.74Z"/><path class="cls-1" d="M572.77,55.57a45.81,45.81,0,0,0-18.81,4,23.81,23.81,0,0,0-11.91,11.65V126H518.93V35.55h21.23V54.88a40.43,40.43,0,0,1,5.69-8.37A43.85,43.85,0,0,1,552.93,40a32.68,32.68,0,0,1,7.68-4.23,21.11,21.11,0,0,1,7.5-1.47H571a9.67,9.67,0,0,1,1.81.17Z"/></g></g></svg>